<svg width="14" height="14" viewBox="0 0 14 14" fill="none" xmlns="http://www.w3.org/2000/svg">
<path fill-rule="evenodd" clip-rule="evenodd" d="M13.5455 7.09086C13.5455 8.82683 12.8559 10.4917 11.6284 11.7192C10.4009 12.9467 8.73601 13.6363 7.00004 13.6363C5.26408 13.6363 3.59922 12.9467 2.37171 11.7192C1.1442 10.4917 0.45459 8.82683 0.45459 7.09086C0.45459 5.3549 1.1442 3.69004 2.37171 2.46253C3.59922 1.23502 5.26408 0.54541 7.00004 0.54541C8.73601 0.54541 10.4009 1.23502 11.6284 2.46253C12.8559 3.69004 13.5455 5.3549 13.5455 7.09086ZM10.2728 7.09086C10.2728 7.95885 9.92797 8.79128 9.31421 9.40503C8.70046 10.0188 7.86803 10.3636 7.00004 10.3636C6.13206 10.3636 5.29963 10.0188 4.68588 9.40503C4.07212 8.79128 3.72732 7.95885 3.72732 7.09086C3.72732 6.22288 4.07212 5.39045 4.68588 4.7767C5.29963 4.16294 6.13206 3.81814 7.00004 3.81814C7.86803 3.81814 8.70046 4.16294 9.31421 4.7767C9.92797 5.39045 10.2728 6.22288 10.2728 7.09086Z" fill="#91A7B0"/>
</svg>
